<svg xmlns="http://www.w3.org/2000/svg" version="1.1" xmlns:xlink="http://www.w3.org/1999/xlink" xmlns:svgjs="http://svgjs.dev/svgjs" width="1000" height="1000" viewBox="0 0 1000 1000"><rect width="1000" height="1000" fill="#046380"></rect><g transform="matrix(0.7,0,0,0.7,149.57575757575756,282.1265587044535)"><svg viewBox="0 0 396 247" data-background-color="#046380" preserveAspectRatio="xMidYMid meet" height="623" width="1000" xmlns="http://www.w3.org/2000/svg" xmlns:xlink="http://www.w3.org/1999/xlink"><g id="tight-bounds" transform="matrix(1,0,0,1,0.2400000000000091,-0.09999999999999432)"><svg viewBox="0 0 395.52 247.2" height="247.2" width="395.52"><g><svg></svg></g><g><svg viewBox="0 0 395.52 247.2" height="247.2" width="395.52"><g transform="matrix(1,0,0,1,39.55199999999999,40.539924989914496)"><svg viewBox="0 0 316.416 166.120150020171" height="166.120150020171" width="316.416"><g><svg viewBox="0 0 316.416 166.120150020171" height="166.120150020171" width="316.416"><g><svg viewBox="0 0 316.416 166.120150020171" height="166.120150020171" width="316.416"><g><svg viewBox="0 0 316.416 166.120150020171" height="166.120150020171" width="316.416"><g id="textblocktransform"><svg viewBox="0 0 316.416 166.120150020171" height="166.120150020171" width="316.416" id="textblock"><g><svg viewBox="0 0 316.416 166.120150020171" height="166.120150020171" width="316.416"><g transform="matrix(1,0,0,1,0,0)"><svg width="316.416" viewBox="-1.1399998664855957 -36.400001525878906 76.04000091552734 40.400001525878906" height="166.120150020171" data-palette-color="#ffffff"><path d="M27.69 0L15.36 0 15.36-6.47 23.36-6.47 23.36-25.93 15.36-25.93 15.36-32.4 27.69-32.4 34.18-25.93 34.18-6.47 27.69 0ZM2.86 0L2.86-32.4 13.65-32.4 13.65 0 2.86 0ZM49.92 0L39.13 0 39.13-32.4 49.92-32.4 49.92 0ZM70.38-32.4L51.58-4.59 51.58-20.34 59.15-32.37 70.38-32.4ZM61.96-17.14L70.9 0 59.23 0 55.56-7.54 61.96-17.14Z" opacity="1" transform="matrix(1,0,0,1,0,0)" fill="#ffffff" class="undefined-text-0" data-fill-palette-color="primary" id="text-0"></path></svg></g></svg></g></svg></g></svg></g></svg></g></svg></g></svg></g><g mask="url(&quot;#23369011-4ff9-4578-983b-610a231626a8&quot;)"><g transform="matrix(2.696312824377617, 0, 0, 2.696312824377617, 73.95609936845808, 1.0000000000000142)"><svg xmlns="http://www.w3.org/2000/svg" xmlns:xlink="http://www.w3.org/1999/xlink" version="1.1" x="0" y="0" viewBox="4.083998680114746 4.531000137329102 91.83200073242188 90.93900299072266" enable-background="new 0 0 100 100" xml:space="preserve" height="90.93900299072266" width="91.83200073242188" class="icon-none" data-fill-palette-color="accent" id="none"><g fill="#ffffff" data-fill-palette-color="accent"><path fill="none" d="M27.751 31.829v37.153c0 1.682 1.367 3.047 3.047 3.047h37.153c1.682 0 3.048-1.365 3.048-3.047V31.829c0-1.68-1.366-3.047-3.048-3.047H30.798C29.118 28.782 27.751 30.149 27.751 31.829zM40.021 45.799c0-2.358 1.912-4.271 4.27-4.271h10.168c2.357 0 4.27 1.912 4.27 4.271v9.215c0 2.358-1.912 4.271-4.27 4.271H44.291c-2.358 0-4.27-1.912-4.27-4.271V45.799z"></path><path d="M26.684 31.829v37.153c0 2.27 1.846 4.115 4.115 4.115h37.153c2.27 0 4.115-1.846 4.115-4.115V31.829c0-2.269-1.846-4.114-4.115-4.114H30.798C28.529 27.715 26.684 29.561 26.684 31.829zM70.999 31.829v37.153c0 1.682-1.366 3.047-3.048 3.047H30.798c-1.681 0-3.047-1.365-3.047-3.047V31.829c0-1.68 1.367-3.047 3.047-3.047h37.153C69.633 28.782 70.999 30.149 70.999 31.829z" fill="#ffffff" data-fill-palette-color="accent"></path><path d="M44.291 59.284h10.168c2.357 0 4.27-1.912 4.27-4.271v-9.215c0-2.358-1.912-4.271-4.27-4.271H44.291c-2.358 0-4.27 1.912-4.27 4.271v9.215C40.021 57.372 41.933 59.284 44.291 59.284z" fill="#ffffff" data-fill-palette-color="accent"></path><circle cx="35.146" cy="22.323" r="3.0" fill="#ffffff" data-fill-palette-color="accent"></circle><path d="M53.896 25.323c1.657 0 3-1.344 3-3 0-1.486-1.082-2.71-2.5-2.95V8.51h17.446c0.244 1.682 1.679 2.979 3.429 2.979 1.921 0 3.479-1.558 3.479-3.479s-1.559-3.479-3.479-3.479c-1.75 0-3.185 1.297-3.429 2.979H53.396v11.863c-1.417 0.239-2.5 1.464-2.5 2.95C50.896 23.979 52.239 25.323 53.896 25.323z" fill="#ffffff" data-fill-palette-color="accent"></path><path d="M44.479 75.489c-1.656 0-3 1.344-3 3 0 1.485 1.083 2.71 2.5 2.95V91.49h-1.925c-0.245-1.683-1.679-2.979-3.429-2.979-1.921 0-3.479 1.558-3.479 3.479 0 1.921 1.558 3.479 3.479 3.479 1.75 0 3.184-1.297 3.429-2.979h2.925V81.439c1.418-0.24 2.5-1.465 2.5-2.95C47.479 76.833 46.136 75.489 44.479 75.489z" fill="#ffffff" data-fill-palette-color="accent"></path><path d="M74.208 36.947c0 1.656 1.344 3 3 3 1.485 0 2.71-1.083 2.95-2.5h1.518c0.244 1.683 1.678 2.979 3.428 2.979 1.922 0 3.479-1.558 3.479-3.479s-1.558-3.479-3.479-3.479c-1.75 0-3.184 1.296-3.428 2.979h-1.518c-0.24-1.418-1.465-2.5-2.95-2.5C75.552 33.947 74.208 35.29 74.208 36.947z" fill="#ffffff" data-fill-palette-color="accent"></path><path d="M24.542 64.697c0-1.656-1.344-3-3-3-1.486 0-2.71 1.083-2.95 2.5h-2.122c-0.244-1.683-1.679-2.979-3.429-2.979-1.921 0-3.479 1.557-3.479 3.479s1.558 3.479 3.479 3.479c1.75 0 3.185-1.296 3.429-2.979h2.122c0.239 1.418 1.464 2.5 2.95 2.5C23.198 67.697 24.542 66.354 24.542 64.697z" fill="#ffffff" data-fill-palette-color="accent"></path><path d="M25.021 11.489c1.75 0 3.184-1.297 3.429-2.979h6.196v10.813h0.5 0.5V7.51H28.45c-0.245-1.682-1.679-2.979-3.429-2.979-1.921 0-3.479 1.558-3.479 3.479S23.1 11.489 25.021 11.489z" fill="#ffffff" data-fill-palette-color="accent"></path><path d="M43.979 11.439v7.935c-1.417 0.239-2.5 1.464-2.5 2.95 0 1.656 1.344 3 3 3 1.657 0 3-1.344 3-3 0-1.486-1.082-2.71-2.5-2.95v-7.935c1.683-0.245 2.979-1.679 2.979-3.429 0-1.921-1.558-3.479-3.479-3.479S41 6.089 41 8.01C41 9.76 42.296 11.194 43.979 11.439z" fill="#ffffff" data-fill-palette-color="accent"></path><path d="M66.375 13.188c0-1.921-1.559-3.479-3.479-3.479s-3.479 1.558-3.479 3.479c0 1.75 1.297 3.184 2.979 3.429v2.757c-1.417 0.239-2.5 1.464-2.5 2.95 0 1.656 1.344 3 3 3 1.657 0 3-1.344 3-3 0-1.486-1.082-2.71-2.5-2.95v-2.757C65.078 16.372 66.375 14.938 66.375 13.188z" fill="#ffffff" data-fill-palette-color="accent"></path><path d="M91.938 31.144V45.78H80.158c-0.24-1.417-1.465-2.5-2.95-2.5-1.656 0-3 1.344-3 3 0 1.657 1.344 3 3 3 1.485 0 2.71-1.082 2.95-2.5h12.779V31.144c1.682-0.244 2.979-1.679 2.979-3.429 0-1.921-1.558-3.479-3.479-3.479-1.922 0-3.479 1.558-3.479 3.479C88.958 29.465 90.255 30.899 91.938 31.144z" fill="#ffffff" data-fill-palette-color="accent"></path><path d="M92.063 49.219c-1.75 0-3.185 1.296-3.43 2.979h-4.717v3h-3.758c-0.24-1.417-1.465-2.5-2.95-2.5-1.656 0-3 1.344-3 3 0 1.657 1.344 3 3 3 1.485 0 2.71-1.082 2.95-2.5h4.758v-3h3.717c0.245 1.683 1.68 2.979 3.43 2.979 1.921 0 3.479-1.557 3.479-3.479S93.983 49.219 92.063 49.219z" fill="#ffffff" data-fill-palette-color="accent"></path><path d="M54.396 88.561v-7.121c1.418-0.24 2.5-1.465 2.5-2.95 0-1.656-1.343-3-3-3-1.656 0-3 1.344-3 3 0 1.485 1.083 2.71 2.5 2.95v7.121c-1.683 0.245-2.979 1.68-2.979 3.43 0 1.921 1.558 3.479 3.479 3.479s3.479-1.558 3.479-3.479C57.375 90.24 56.078 88.806 54.396 88.561z" fill="#ffffff" data-fill-palette-color="accent"></path><path d="M71.729 83.511c-1.75 0-3.184 1.297-3.428 2.979h-4.905v-5.051c1.418-0.24 2.5-1.465 2.5-2.95 0-1.656-1.343-3-3-3-1.656 0-3 1.344-3 3 0 1.485 1.083 2.71 2.5 2.95v6.051h5.905c0.244 1.682 1.678 2.979 3.428 2.979 1.922 0 3.479-1.558 3.479-3.479C75.208 85.068 73.65 83.511 71.729 83.511z" fill="#ffffff" data-fill-palette-color="accent"></path><path d="M91.396 68.344c-1.75 0-3.185 1.297-3.429 2.979h-4.092v-7.126h-3.717c-0.24-1.417-1.465-2.5-2.95-2.5-1.656 0-3 1.344-3 3 0 1.657 1.344 3 3 3 1.485 0 2.71-1.082 2.95-2.5h2.717v7.126h5.092c0.244 1.683 1.679 2.979 3.429 2.979 1.921 0 3.479-1.559 3.479-3.479S93.316 68.344 91.396 68.344z" fill="#ffffff" data-fill-palette-color="accent"></path><path d="M8.396 31.194c1.75 0 3.185-1.296 3.429-2.979h0.717v9.232h6.05c0.239 1.417 1.464 2.5 2.95 2.5 1.656 0 3-1.344 3-3 0-1.657-1.344-3-3-3-1.486 0-2.71 1.082-2.95 2.5h-5.05v-9.232h-1.717c-0.244-1.683-1.679-2.979-3.429-2.979-1.921 0-3.479 1.558-3.479 3.479S6.475 31.194 8.396 31.194z" fill="#ffffff" data-fill-palette-color="accent"></path><path d="M7.063 42.606v3.383h11.508c-0.009 0.097-0.029 0.191-0.029 0.291 0 1.657 1.343 3 3 3 1.656 0 3-1.343 3-3 0-1.656-1.344-3-3-3-1.193 0-2.214 0.701-2.697 1.709H8.063v-2.383c1.682-0.245 2.979-1.679 2.979-3.429 0-1.921-1.558-3.479-3.479-3.479s-3.479 1.558-3.479 3.479C4.084 40.927 5.381 42.361 7.063 42.606z" fill="#ffffff" data-fill-palette-color="accent"></path><path d="M10.992 60.239h3.383v-4.333h4.188c0.109 1.558 1.394 2.791 2.979 2.791 1.656 0 3-1.343 3-3 0-1.656-1.344-3-3-3-1.381 0-2.532 0.939-2.881 2.209h-5.286v4.333h-2.383c-0.245-1.683-1.679-2.979-3.429-2.979-1.921 0-3.479 1.559-3.479 3.479s1.558 3.479 3.479 3.479C9.313 63.219 10.747 61.922 10.992 60.239z" fill="#ffffff" data-fill-palette-color="accent"></path><path d="M35.646 81.439c1.417-0.24 2.5-1.465 2.5-2.95 0-1.656-1.344-3-3-3-1.657 0-3 1.344-3 3 0 1.485 1.082 2.71 2.5 2.95v3.029h-6.675c-0.244-1.683-1.679-2.979-3.429-2.979-1.921 0-3.479 1.558-3.479 3.479 0 1.921 1.558 3.479 3.479 3.479 1.75 0 3.185-1.297 3.429-2.979h7.675V81.439z" fill="#ffffff" data-fill-palette-color="accent"></path></g></svg></g></g><mask id="23369011-4ff9-4578-983b-610a231626a8"><rect width="640" height="400" fill="white"></rect><g transform="matrix(1,0,0,1,39.55199999999999,40.539924989914496)"><svg viewBox="0 0 316.416 166.120150020171" height="166.120150020171" width="316.416"><g><svg viewBox="0 0 316.416 166.120150020171" height="166.120150020171" width="316.416"><g><svg viewBox="0 0 316.416 166.120150020171" height="166.120150020171" width="316.416"><g><svg viewBox="0 0 316.416 166.120150020171" height="166.120150020171" width="316.416"><g id="SvgjsG1368"><svg viewBox="0 0 316.416 166.120150020171" height="166.120150020171" width="316.416" id="SvgjsSvg1367"><g><svg viewBox="0 0 316.416 166.120150020171" height="166.120150020171" width="316.416"><g transform="matrix(1,0,0,1,0,0)"><svg width="316.416" viewBox="-1.1399998664855957 -36.400001525878906 76.04000091552734 40.400001525878906" height="166.120150020171" data-palette-color="#ffffff"><path d="M27.69 0L15.36 0 15.36-6.47 23.36-6.47 23.36-25.93 15.36-25.93 15.36-32.4 27.69-32.4 34.18-25.93 34.18-6.47 27.69 0ZM2.86 0L2.86-32.4 13.65-32.4 13.65 0 2.86 0ZM49.92 0L39.13 0 39.13-32.4 49.92-32.4 49.92 0ZM70.38-32.4L51.58-4.59 51.58-20.34 59.15-32.37 70.38-32.4ZM61.96-17.14L70.9 0 59.23 0 55.56-7.54 61.96-17.14Z" opacity="1" transform="matrix(1,0,0,1,0,0)" fill="#ffffff" class="undefined-text-0" data-fill-palette-color="primary" id="SvgjsPath1366" stroke-width="7" stroke="black" stroke-linejoin="round"></path></svg></g></svg></g></svg></g></svg></g></svg></g></svg></g></svg></g></mask></svg></g><defs></defs></svg><rect width="395.52" height="247.2" fill="none" stroke="none" visibility="hidden"></rect></g></svg></g></svg>